<svg xmlns="http://www.w3.org/2000/svg" viewBox="0 0 292.6 75.6"><title>kobologo</title><path d="M60.6,37.8,71.4,25.4c.3-.3,0-.8-.4-.8H68.5A4.1006,4.1006,0,0,0,65.4,26l-9,10.6V25.3a.5764.5764,0,0,0-.6-.6h-3a.5764.5764,0,0,0-.6.6V50.4a.5764.5764,0,0,0,.6.6h3a.5764.5764,0,0,0,.6-.6V39.2l9,10.4A4.1006,4.1006,0,0,0,68.5,51h2.7a.5233.5233,0,0,0,.4-.8Z" style="fill:#fff"/><path d="M108,37.4a7.13,7.13,0,0,0,3.3-2.2,5.9555,5.9555,0,0,0,1.2-3.8,5.6763,5.6763,0,0,0-1-3.4,6.9568,6.9568,0,0,0-2.9-2.4,10.7842,10.7842,0,0,0-4.6-.9H94.6a.5764.5764,0,0,0-.6.6V50.4a.5764.5764,0,0,0,.6.6h9.9a11.1056,11.1056,0,0,0,4.6-.9,7.4709,7.4709,0,0,0,3-2.5,6.5285,6.5285,0,0,0,1-3.6,6.3617,6.3617,0,0,0-1.5-4.2A5.1219,5.1219,0,0,0,108,37.4Zm-9.8-9.3h5.3a4.826,4.826,0,0,1,3.3,1,3.4891,3.4891,0,0,1,1.2,2.8,3.4891,3.4891,0,0,1-1.2,2.8,5.3993,5.3993,0,0,1-3.3,1H98.2Zm9.3,18.2a5.2346,5.2346,0,0,1-3.5,1.1H98.2V39.2h5.7a5.4244,5.4244,0,0,1,3.5,1.1,3.8705,3.8705,0,0,1,1.3,3.1A3.1524,3.1524,0,0,1,107.5,46.3Z" style="fill:#fff"/><path d="M38.6,42.8v2.8a2.7951,2.7951,0,0,1-2.8,2.8H29.7a2.7951,2.7951,0,0,1-2.8-2.8V30a2.7951,2.7951,0,0,1,2.8-2.8h6.1A2.7951,2.7951,0,0,1,38.6,30v.4a4.6712,4.6712,0,0,1,1.7-.3,4.4771,4.4771,0,0,1,2,.4V30a6.487,6.487,0,0,0-6.5-6.5H29.7A6.487,6.487,0,0,0,23.2,30V45.6a6.487,6.487,0,0,0,6.5,6.5h6.1a6.487,6.487,0,0,0,6.5-6.5V38.5Z" style="fill:#64c0ff"/><path d="M35.6,41.9l6.6-7.6a.5288.5288,0,0,0-.1-.8h0a2.723,2.723,0,0,0-3.9.3l-4.1,4.7c-.1.1-.3.1-.3,0l-1.5-1.9a.7486.7486,0,0,0-1.2,0h0a2.7574,2.7574,0,0,0-.1,3.7l1.2,1.5A2.107,2.107,0,0,0,35.6,41.9Z" style="fill:#64c0ff"/><path d="M147.7,32.6V45.1a2.7762,2.7762,0,0,0,.7,2.2,3.343,3.343,0,0,0,2.3.6h2.2a.43.43,0,0,1,.4.4v2.2a.43.43,0,0,1-.4.4H150a6.27,6.27,0,0,1-4.4-1.4,5.7109,5.7109,0,0,1-1.5-4.4V32.6h-2.3a.43.43,0,0,1-.4-.4V30.1a.43.43,0,0,1,.4-.4h2.3V24.8a.43.43,0,0,1,.4-.4h2.7a.43.43,0,0,1,.4.4v4.9h5.1a.43.43,0,0,1,.4.4v2.1a.43.43,0,0,1-.4.4Z" style="fill:#64c0ff"/><path d="M159.3,49.9a9.91,9.91,0,0,1-3.8-3.8,12.1322,12.1322,0,0,1-1.4-5.8,11.4564,11.4564,0,0,1,1.4-5.7,9.91,9.91,0,0,1,3.8-3.8,11.8654,11.8654,0,0,1,10.8,0,9.91,9.91,0,0,1,3.8,3.8,11.8494,11.8494,0,0,1,1.4,5.8,12.1322,12.1322,0,0,1-1.4,5.8A10.149,10.149,0,0,1,170,50a11.2358,11.2358,0,0,1-5.5,1.4A12.0017,12.0017,0,0,1,159.3,49.9Zm8.9-2.6a7.0006,7.0006,0,0,0,2.7-2.7,8.2958,8.2958,0,0,0,1-4.3,8.2958,8.2958,0,0,0-1-4.3,5.93,5.93,0,0,0-2.6-2.6,7.2965,7.2965,0,0,0-3.5-.9,6.7556,6.7556,0,0,0-3.5.9,7.1994,7.1994,0,0,0-2.6,2.6,9.4107,9.4107,0,0,0-1,4.3,9.8647,9.8647,0,0,0,.9,4.4,5.74,5.74,0,0,0,2.5,2.6,7.0179,7.0179,0,0,0,3.5.9A7.1262,7.1262,0,0,0,168.2,47.3Z" style="fill:#64c0ff"/><path d="M182.5,49.9a9.91,9.91,0,0,1-3.8-3.8,12.1322,12.1322,0,0,1-1.4-5.8,11.4564,11.4564,0,0,1,1.4-5.7,9.91,9.91,0,0,1,3.8-3.8,11.8654,11.8654,0,0,1,10.8,0,9.91,9.91,0,0,1,3.8,3.8,11.8494,11.8494,0,0,1,1.4,5.8,12.1322,12.1322,0,0,1-1.4,5.8,10.149,10.149,0,0,1-3.9,3.8,11.2358,11.2358,0,0,1-5.5,1.4A12.0017,12.0017,0,0,1,182.5,49.9Zm8.9-2.6a7.0006,7.0006,0,0,0,2.7-2.7,8.2958,8.2958,0,0,0,1-4.3,8.2958,8.2958,0,0,0-1-4.3,5.93,5.93,0,0,0-2.6-2.6,7.2965,7.2965,0,0,0-3.5-.9,6.7556,6.7556,0,0,0-3.5.9,7.1994,7.1994,0,0,0-2.6,2.6,9.4107,9.4107,0,0,0-1,4.3,9.8647,9.8647,0,0,0,.9,4.4,5.74,5.74,0,0,0,2.5,2.6,7.0179,7.0179,0,0,0,3.5.9A7.3964,7.3964,0,0,0,191.4,47.3Z" style="fill:#64c0ff"/><path d="M204.6,24.6V50.5a.43.43,0,0,1-.4.4h-2.7a.43.43,0,0,1-.4-.4V24.6a.43.43,0,0,1,.4-.4h2.7A.43.43,0,0,1,204.6,24.6Z" style="fill:#64c0ff"/><path d="M214.7,30.6a9.5016,9.5016,0,0,1,4.8-1.2,9.7529,9.7529,0,0,1,5.1,1.4,10.13,10.13,0,0,1,3.6,3.8,11.4336,11.4336,0,0,1,1.3,5.7,11.9637,11.9637,0,0,1-1.3,5.7,9.6281,9.6281,0,0,1-8.7,5.3,9.5016,9.5016,0,0,1-4.8-1.2,7.7052,7.7052,0,0,1-3.1-3.1v3.5a.43.43,0,0,1-.4.4h-2.7a.43.43,0,0,1-.4-.4V24.6a.43.43,0,0,1,.4-.4h2.7a.43.43,0,0,1,.4.4v9A7.4913,7.4913,0,0,1,214.7,30.6Zm10.2,5.5a6.1764,6.1764,0,0,0-2.6-2.7,7.65,7.65,0,0,0-7.2,0,6.1764,6.1764,0,0,0-2.6,2.7,8.1646,8.1646,0,0,0-1,4.2,8.1646,8.1646,0,0,0,1,4.2,6.7754,6.7754,0,0,0,2.6,2.7,7.65,7.65,0,0,0,7.2,0,6.1764,6.1764,0,0,0,2.6-2.7,9.2967,9.2967,0,0,0,1-4.2A7.6925,7.6925,0,0,0,224.9,36.1Z" style="fill:#64c0ff"/><path d="M236.4,49.9a9.91,9.91,0,0,1-3.8-3.8,12.1322,12.1322,0,0,1-1.4-5.8,11.4564,11.4564,0,0,1,1.4-5.7,9.91,9.91,0,0,1,3.8-3.8,11.8654,11.8654,0,0,1,10.8,0,9.91,9.91,0,0,1,3.8,3.8,11.8494,11.8494,0,0,1,1.4,5.8,12.1322,12.1322,0,0,1-1.4,5.8,10.149,10.149,0,0,1-3.9,3.8,11.2358,11.2358,0,0,1-5.5,1.4A12.0017,12.0017,0,0,1,236.4,49.9Zm9-2.6a7.0006,7.0006,0,0,0,2.7-2.7,8.2958,8.2958,0,0,0,1-4.3,8.2958,8.2958,0,0,0-1-4.3,5.93,5.93,0,0,0-2.6-2.6,7.2965,7.2965,0,0,0-3.5-.9,6.7556,6.7556,0,0,0-3.5.9,7.1994,7.1994,0,0,0-2.6,2.6,9.4107,9.4107,0,0,0-1,4.3,9.8647,9.8647,0,0,0,.9,4.4,5.74,5.74,0,0,0,2.5,2.6,7.0179,7.0179,0,0,0,3.5.9A7.3964,7.3964,0,0,0,245.4,47.3Z" style="fill:#64c0ff"/><path d="M265.4,50.5,260.6,43,256,50.5a.8418.8418,0,0,1-.7.4h-2.9c-.2,0-.3-.2-.2-.3l6.6-10.2L252.3,30c-.1-.1,0-.3.2-.3h3.2a.7549.7549,0,0,1,.7.4l4.8,7.5,4.6-7.5a.8418.8418,0,0,1,.7-.4h2.9c.2,0,.3.2.2.3L263,40.2l6.6,10.4c.1.1,0,.3-.2.3h-3.2A.8116.8116,0,0,1,265.4,50.5Z" style="fill:#64c0ff"/><path d="M80.7,32.1a7.6,7.6,0,1,1-7.6,7.6,7.5966,7.5966,0,0,1,7.6-7.6m0-4A11.6,11.6,0,1,0,92.3,39.7,11.6083,11.6083,0,0,0,80.7,28.1Z" style="fill:#fff"/><path d="M125.9,32.1a7.6,7.6,0,1,1-7.6,7.6,7.5966,7.5966,0,0,1,7.6-7.6m0-4a11.6,11.6,0,1,0,11.6,11.6,11.6083,11.6083,0,0,0-11.6-11.6Z" style="fill:#fff"/></svg>